Coordinates
version=1
nRows=7
nColumns=40
inDegrees=yes

Units are S.I. units (second, meters, Newtons, ...)
If the header above contains a line with 'inDegrees', this indicates whether rotational values are in degrees (yes) or radians (no).

endheader
time	pelvis_tilt	pelvis_list	pelvis_rotation	pelvis_tx	pelvis_ty	pelvis_tz	hip_flexion_r	hip_adduction_r	hip_rotation_r	knee_angle_r	knee_angle_r_beta	ankle_angle_r	subtalar_angle_r	mtp_angle_r	hip_flexion_l	hip_adduction_l	hip_rotation_l	knee_angle_l	knee_angle_l_beta	ankle_angle_l	subtalar_angle_l	mtp_angle_l	lumbar_extension	lumbar_bending	lumbar_rotation	arm_flex_r	arm_add_r	arm_rot_r	elbow_flex_r	pro_sup_r	wrist_flex_r	wrist_dev_r	arm_flex_l	arm_add_l	arm_rot_l	elbow_flex_l	pro_sup_l	wrist_flex_l	wrist_dev_l
      2.66000000	    -41.05837759	     -1.16249457	     -3.26688984	     -0.44466809	      0.50476561	     -0.92672094	    117.30593801	    -21.50342664	      0.10604147	    109.68527680	      1.91436922	     34.77066816	      0.00000000	      0.00000000	    119.37784001	    -24.40648033	      7.10289035	    112.29378452	      1.95989627	     36.30086909	      0.00000000	      0.00000000	    -26.02913850	     -0.21458050	     -6.22114583	      0.35876445	    -51.44760917	     65.92853720	     96.68474934	     87.57305552	      0.00000000	      0.00000000	    -33.15953085	    -42.05709898	     30.38888327	     94.37236502	     87.57275009	      0.00000000	      0.00000000
      2.66500000	    -41.08597588	     -1.28149510	     -3.22694055	     -0.44437263	      0.50477718	     -0.92666317	    117.27349672	    -21.61654202	     -0.02601627	    109.76106813	      1.91569203	     34.74715955	      0.00000000	      0.00000000	    119.41715628	    -24.32378281	      7.23315183	    112.27744740	      1.95961113	     36.29695940	      0.00000000	      0.00000000	    -26.00668469	     -0.08590847	     -5.57494794	     -1.14425173	    -51.44380437	     64.36332348	     96.72131525	     87.33393785	      0.00000000	      0.00000000	    -31.80266627	    -42.66549674	     32.05631894	     94.16657070	     87.31376130	      0.00000000	      0.00000000
      2.67000000	    -41.14442379	     -1.16436062	     -3.19298453	     -0.44432347	      0.50462170	     -0.92679783	    117.42462592	    -21.58672407	      0.17044021	    109.79232049	      1.91623749	     34.71277015	      0.00000000	      0.00000000	    119.40071519	    -24.32909733	      7.08006228	    112.29351481	      1.95989156	     36.38822706	      0.00000000	      0.00000000	    -25.98728287	     -0.20105721	     -5.32084881	     -2.22639548	    -51.40939961	     63.10459876	     96.89932448	     87.59039897	      0.00000000	      0.00000000	    -31.36119896	    -42.90945812	     32.48099765	     94.22294733	     87.55791839	      0.00000000	      0.00000000
      2.67500000	    -41.08547147	     -1.16480260	     -3.32386844	     -0.44375283	      0.50472366	     -0.92641523	    117.28732110	    -21.42566143	      0.12145141	    109.84255794	      1.91711429	     34.80245389	      0.00000000	      0.00000000	    119.35813189	    -24.51293249	      7.17711600	    112.36505969	      1.96114026	     36.37258794	      0.00000000	      0.00000000	    -26.01867194	     -0.31733306	     -5.77309307	     -0.60641081	    -51.32829470	     64.93163829	     96.64565950	     87.58012304	      0.00000000	      0.00000000	    -32.41597826	    -42.52993031	     31.31437962	     94.28728682	     87.59328535	      0.00000000	      0.00000000
      2.68000000	    -41.15879168	     -1.16680101	     -3.37608106	     -0.44346430	      0.50476354	     -0.92616134	    117.30340033	    -21.37160888	      0.06346034	    109.84437703	      1.91714604	     34.92478042	      0.00000000	      0.00000000	    119.38508000	    -24.59234539	      7.18620456	    112.34714593	      1.96082760	     36.46941659	      0.00000000	      0.00000000	    -25.89125092	     -0.37575987	     -5.09954257	     -1.98745343	    -51.29032958	     63.46037451	     96.72017377	     87.32276045	      0.00000000	      0.00000000	    -31.02612530	    -43.27818195	     33.11039527	     94.12783595	     87.32934902	      0.00000000	      0.00000000
      2.68500000	    -41.06783274	     -1.10217198	     -3.69655392	     -0.44294948	      0.50497717	     -0.92550069	    117.13658837	    -20.98804247	     -0.02402917	    109.83864439	      1.91704599	     34.87576003	      0.00000000	      0.00000000	    119.34362980	    -25.00634879	      7.31677596	    112.45113767	      1.96264260	     36.42459370	      0.00000000	      0.00000000	    -25.97507296	     -0.62850696	     -4.48175975	     -3.01624502	    -51.18571787	     62.28521938	     96.79852564	     87.56890565	      0.00000000	      0.00000000	    -30.49479463	    -43.55525998	     33.60147581	     94.16550861	     87.54437452	      0.00000000	      0.00000000
      2.69000000	    -41.10501985	     -1.13940979	     -3.36957069	     -0.44240180	      0.50518505	     -0.92613864	    117.14217839	    -21.36151013	      0.08611540	    109.87714743	      1.91771800	     34.98030215	      0.00000000	      0.00000000	    119.24399521	    -24.68006500	      7.11547743	    112.44127974	      1.96247055	     36.47319401	      0.00000000	      0.00000000	    -25.90949347	     -0.45497948	     -4.49829635	     -3.66286372	    -51.09941788	     61.57921365	     96.70408223	     87.56042583	      0.00000000	      0.00000000	    -29.84930151	    -43.68769734	     34.27145833	     93.88510296	     87.52470304	      0.00000000	      0.00000000
